<?xml version="1.0" encoding="UTF-8" standalone="no"?>
<!-- Created with Inkscape (http://www.inkscape.org/) -->

<svg
   version="1.1"
   id="svg2"
   width="604.724"
   height="453.54266"
   viewBox="0 0 604.724 453.54266"
   xmlns="http://www.w3.org/2000/svg"
   xmlns:svg="http://www.w3.org/2000/svg">
  <defs
     id="defs6">
    <clipPath
       clipPathUnits="userSpaceOnUse"
       id="clipPath16">
      <path
         d="M 0,340.157 H 453.543 V 0 H 0 Z"
         id="path14" />
    </clipPath>
  </defs>
  <g
     id="g8"
     transform="matrix(1.3333333,0,0,-1.3333333,0,453.54267)">
    <g
       id="g10">
      <g
         id="g12"
         clip-path="url(#clipPath16)">
        <g
           id="g18"
           transform="translate(174.7061,163.5221)">
          <path
             d="M 0,0 V 54.031 H -9.618 L -39.31,6.691 c -1.003,-1.505 -2.091,-2.258 -3.261,-2.258 -1.171,0 -2.259,0.753 -3.263,2.258 l -30.362,47.34 h -9.45 V 0 h -7.612 v 57.795 c 0,2.564 1.31,3.847 3.933,3.847 h 15.388 c 1.338,0 2.397,-0.585 3.178,-1.756 l 28.188,-43.995 27.684,43.911 c 0.334,0.557 0.739,1.004 1.213,1.338 0.473,0.335 1.129,0.502 1.966,0.502 H 3.765 c 2.563,0 3.847,-1.283 3.847,-3.847 L 7.612,0 Z"
             style="fill:#bf935b;fill-opacity:1;fill-rule:nonzero;stroke:none"
             id="path20" />
        </g>
        <g
           id="g22"
           transform="translate(273.902,161.7661)">
          <path
             d="m 0,0 -31.532,55.787 h -7.863 L -70.927,0 l -6.69,3.596 32.703,57.795 c 0.723,1.339 1.839,2.007 3.346,2.007 h 12.377 c 1.395,0 2.48,-0.668 3.263,-2.007 L 6.69,3.596 Z"
             style="fill:#bf935b;fill-opacity:1;fill-rule:nonzero;stroke:none"
             id="path24" />
        </g>
        <path
           d="m 234.424,191.178 h 7.946 v -7.611 h -7.946 z"
           style="fill:#bf935b;fill-opacity:1;fill-rule:nonzero;stroke:none"
           id="path26" />
        <g
           id="g28"
           transform="translate(335.5448,191.792)">
          <path
             d="m 0,0 c -0.949,0.892 -1.421,1.812 -1.421,2.761 0,0.277 0.069,0.654 0.208,1.129 C -1.074,4.362 -0.669,4.906 0,5.521 L 31.364,35.129 36.467,29.525 8.196,2.677 36.55,-24.673 31.364,-30.11 Z m -40.899,-30.11 -5.186,5.437 29.023,27.434 -28.02,26.847 5.354,5.521 L -9.033,5.437 C -8.029,4.488 -7.527,3.597 -7.527,2.761 -7.527,1.812 -8.029,0.892 -9.033,0 Z"
             style="fill:#bf935b;fill-opacity:1;fill-rule:nonzero;stroke:none"
             id="path30" />
        </g>
        <g
           id="g32"
           transform="translate(153.5999,120.7301)">
          <path
             d="m 0,0 c 0,-0.914 -0.039,-1.73 -0.116,-2.449 -0.077,-0.72 -0.252,-1.346 -0.524,-1.881 -0.272,-0.535 -0.671,-0.987 -1.196,-1.355 -0.525,-0.37 -1.225,-0.667 -2.1,-0.889 -0.874,-0.224 -1.963,-0.384 -3.265,-0.482 -1.302,-0.097 -2.858,-0.146 -4.665,-0.146 h -2.041 c -1.828,0 -3.388,0.049 -4.681,0.146 -1.292,0.098 -2.381,0.258 -3.265,0.482 -0.885,0.222 -1.585,0.529 -2.1,0.918 -0.515,0.388 -0.914,0.874 -1.196,1.458 -0.281,0.583 -0.46,1.282 -0.538,2.099 -0.079,0.816 -0.117,1.759 -0.117,2.828 v 6.24 c 0,1.069 0.038,2.012 0.117,2.828 0.078,0.817 0.257,1.517 0.538,2.099 0.282,0.584 0.681,1.07 1.196,1.458 0.515,0.389 1.215,0.696 2.1,0.919 0.884,0.223 1.973,0.384 3.265,0.482 1.293,0.096 2.853,0.145 4.681,0.145 h 2.041 c 1.807,0 3.363,-0.049 4.665,-0.145 1.302,-0.098 2.391,-0.259 3.265,-0.482 0.875,-0.223 1.575,-0.53 2.1,-0.919 0.525,-0.388 0.924,-0.874 1.196,-1.458 0.272,-0.582 0.447,-1.282 0.524,-2.099 C -0.039,8.981 0,8.038 0,6.969 v -0.35 h -2.652 v 0.35 c 0,1.167 -0.063,2.094 -0.191,2.785 -0.125,0.689 -0.486,1.214 -1.078,1.574 -0.594,0.359 -1.512,0.598 -2.756,0.715 -1.244,0.116 -2.974,0.174 -5.189,0.174 h -2.041 c -1.498,0 -2.762,-0.025 -3.791,-0.073 -1.03,-0.048 -1.887,-0.136 -2.565,-0.262 -0.681,-0.126 -1.215,-0.311 -1.605,-0.554 -0.39,-0.244 -0.681,-0.559 -0.874,-0.947 -0.194,-0.39 -0.312,-0.861 -0.351,-1.415 -0.038,-0.554 -0.058,-1.22 -0.058,-1.997 v -6.24 c 0,-0.758 0.02,-1.419 0.058,-1.983 0.039,-0.564 0.157,-1.04 0.351,-1.429 0.193,-0.388 0.484,-0.705 0.874,-0.947 0.39,-0.244 0.924,-0.428 1.605,-0.554 0.678,-0.126 1.535,-0.214 2.565,-0.262 1.029,-0.049 2.293,-0.074 3.791,-0.074 h 2.041 c 2.215,0 3.945,0.054 5.189,0.161 1.244,0.107 2.162,0.325 2.756,0.656 0.592,0.33 0.953,0.787 1.078,1.37 0.128,0.584 0.191,1.361 0.191,2.333 v 0.321 l 2.652,0 z"
             style="fill:#7b7979;fill-opacity:1;fill-rule:nonzero;stroke:none"
             id="path34" />
        </g>
        <g
           id="g36"
           transform="translate(160.8609,113.849)">
          <path
             d="M 0,0 C -0.874,0 -1.311,0.456 -1.311,1.37 V 21.49 H 1.342 V 2.654 h 17.29 l 0,-2.654 z"
             style="fill:#7b7979;fill-opacity:1;fill-rule:nonzero;stroke:none"
             id="path38" />
        </g>
        <path
           d="m 184.683,135.339 h 2.683 v -21.49 h -2.683 z"
           style="fill:#7b7979;fill-opacity:1;fill-rule:nonzero;stroke:none"
           id="path40" />
        <path
           d="m 219.468,135.339 h 2.654 v -21.49 h -2.654 z m -20.178,-2.654 h -2.623 v -18.836 h -2.654 v 20.149 c 0,0.894 0.457,1.341 1.369,1.341 h 4.434 c 0.212,0 0.394,-0.035 0.538,-0.102 0.147,-0.069 0.287,-0.161 0.423,-0.278 l 16.037,-16.124 -1.866,-1.896 z"
           style="fill:#7b7979;fill-opacity:1;fill-rule:nonzero;stroke:none"
           id="path42" />
        <path
           d="m 228.77,135.339 h 2.683 v -21.49 h -2.683 z"
           style="fill:#7b7979;fill-opacity:1;fill-rule:nonzero;stroke:none"
           id="path44" />
        <g
           id="g46"
           transform="translate(252.0378,121.5758)">
          <path
             d="M 0,0 1.429,2.187 14.2,-6.123 12.771,-8.339 Z m 10.904,2.362 v 3.761 c 0,1.167 -0.064,2.095 -0.189,2.785 -0.127,0.69 -0.486,1.214 -1.078,1.575 -0.594,0.358 -1.512,0.598 -2.756,0.714 -1.244,0.116 -2.974,0.175 -5.19,0.175 h -4.169 c -1.499,0 -2.762,-0.025 -3.792,-0.073 -1.03,-0.049 -1.886,-0.136 -2.565,-0.263 -0.681,-0.126 -1.215,-0.31 -1.604,-0.553 -0.39,-0.244 -0.681,-0.56 -0.874,-0.948 -0.195,-0.39 -0.312,-0.86 -0.351,-1.415 -0.039,-0.553 -0.058,-1.22 -0.058,-1.997 v -6.24 c 0,-0.758 0.019,-1.419 0.058,-1.982 0.039,-0.564 0.156,-1.041 0.351,-1.429 0.193,-0.389 0.484,-0.705 0.874,-0.947 0.389,-0.244 0.923,-0.428 1.604,-0.555 0.679,-0.126 1.535,-0.214 2.565,-0.262 1.03,-0.049 2.293,-0.073 3.792,-0.073 h 1.865 v -2.683 h -1.865 c -1.828,0 -3.389,0.049 -4.681,0.147 -1.292,0.097 -2.382,0.257 -3.265,0.481 -0.885,0.223 -1.585,0.529 -2.1,0.918 -0.515,0.388 -0.914,0.874 -1.196,1.458 -0.281,0.583 -0.461,1.282 -0.538,2.099 -0.079,0.817 -0.118,1.759 -0.118,2.828 v 6.24 c 0,1.07 0.039,2.013 0.118,2.828 0.077,0.817 0.257,1.517 0.538,2.1 0.282,0.583 0.681,1.069 1.196,1.458 0.515,0.388 1.215,0.695 2.1,0.919 0.883,0.222 1.973,0.383 3.265,0.481 1.292,0.096 2.853,0.145 4.681,0.145 h 4.169 c 1.807,0 3.362,-0.049 4.666,-0.145 1.301,-0.098 2.389,-0.259 3.265,-0.481 0.875,-0.224 1.573,-0.531 2.1,-0.919 0.524,-0.389 0.922,-0.875 1.194,-1.458 0.273,-0.583 0.447,-1.283 0.526,-2.1 0.077,-0.815 0.116,-1.758 0.116,-2.828 V 2.362 Z"
             style="fill:#7b7979;fill-opacity:1;fill-rule:nonzero;stroke:none"
             id="path48" />
        </g>
        <g
           id="g50"
           transform="translate(295.4537,135.339)">
          <path
             d="m 0,0 h 2.654 v -13.88 c 0,-1.069 -0.041,-2.011 -0.118,-2.828 -0.077,-0.817 -0.258,-1.516 -0.538,-2.099 -0.283,-0.584 -0.681,-1.07 -1.196,-1.458 -0.517,-0.389 -1.215,-0.696 -2.1,-0.918 -0.885,-0.224 -1.973,-0.384 -3.265,-0.482 -1.294,-0.097 -2.854,-0.146 -4.681,-0.146 h -2.769 c -2.721,0 -4.875,0.113 -6.459,0.335 -1.585,0.224 -2.775,0.627 -3.572,1.211 -0.798,0.583 -1.303,1.389 -1.515,2.42 -0.214,1.03 -0.322,2.352 -0.322,3.965 V 0 h 2.653 v -13.88 c 0,-1.147 0.064,-2.065 0.189,-2.755 0.128,-0.69 0.486,-1.221 1.08,-1.589 0.592,-0.37 1.506,-0.612 2.741,-0.729 1.234,-0.117 2.97,-0.175 5.205,-0.175 h 2.769 c 1.478,0 2.737,0.024 3.777,0.073 1.039,0.048 1.899,0.136 2.58,0.262 0.681,0.126 1.215,0.311 1.604,0.555 0.388,0.242 0.679,0.558 0.874,0.946 0.195,0.389 0.311,0.861 0.351,1.415 0.039,0.554 0.058,1.22 0.058,1.997 z"
             style="fill:#7b7979;fill-opacity:1;fill-rule:nonzero;stroke:none"
             id="path52" />
        </g>
        <path
           d="m 322.189,126.795 h 2.8 v -2.654 h -2.8 z m -16.24,-12.946 c -0.874,0 -1.311,0.456 -1.311,1.37 v 18.779 c 0,0.894 0.437,1.341 1.311,1.341 h 19.77 v -2.654 h -18.428 v -16.182 h 18.457 v -2.654 z"
           style="fill:#7b7979;fill-opacity:1;fill-rule:nonzero;stroke:none"
           id="path54" />
      </g>
    </g>
  </g>
</svg>
